<svg xmlns="http://www.w3.org/2000/svg" width="512" height="512" viewBox="0 0 512 512" role="img" aria-label="CipherLane icon">
  <defs>
    <linearGradient id="g" x1="0" y1="0" x2="1" y2="1">
      <stop offset="0" stop-color="#25d366"/>
      <stop offset="1" stop-color="#00a884"/>
    </linearGradient>
  </defs>
  <rect width="512" height="512" rx="116" fill="#0b141a"/>
  <rect x="58" y="58" width="396" height="396" rx="102" fill="url(#g)"/>
  <path d="M256 149c-59.1 0-107 47.9-107 107 0 22.8 7.2 43.6 19.5 60.7L154 363l49.3-14.1A106 106 0 0 0 256 363c59.1 0 107-47.9 107-107S315.1 149 256 149Z" fill="#083f33"/>
  <path d="M318 285c-3.4-1.8-20.2-10-23.3-11.2-3.1-1.2-5.3-1.8-7.6 1.8-2.2 3.5-8.7 11-10.6 13.1-1.8 2.2-3.8 2.4-7.1 0.7-3.4-1.8-14.1-5.4-26.7-16.7-9.9-8.8-16.4-19.7-18.3-23.1-1.8-3.4-0.2-5.2 1.4-7 1.6-1.7 3.5-4.2 5.3-6.3 1.8-2.2 2.4-3.5 3.5-5.8 1.1-2.2 0.5-4.2-0.3-5.8-0.8-1.8-7.6-18.4-10.4-25.2-2.7-6.5-5.6-5.5-7.7-5.6h-6.5c-2.2 0-5.9 0.8-8.9 4.2-3.2 3.4-11.6 11.3-11.6 27.7s11.9 31.9 13.5 33.9c1.7 2.2 23.4 35.8 56.3 49.9 7.8 3.4 14 5.4 19 6.8 8 2.4 15.1 2.2 20.7 1.4 6.3-1.1 20.2-8.1 22.9-16.2 2.9-7.9 2.9-14.8 2.2-16.2-0.8-1.4-3.1-2.2-6.4-4Z" fill="#d7ffef"/>
</svg>
