<svg xmlns="http://www.w3.org/2000/svg" width="192" height="192" viewBox="0 0 192 192" role="img" aria-label="CipherLane icon">
  <defs>
    <linearGradient id="g" x1="0" y1="0" x2="1" y2="1">
      <stop offset="0" stop-color="#25d366"/>
      <stop offset="1" stop-color="#00a884"/>
    </linearGradient>
  </defs>
  <rect width="192" height="192" rx="44" fill="#0b141a"/>
  <rect x="22" y="22" width="148" height="148" rx="38" fill="url(#g)"/>
  <path d="M96 56c-22.1 0-40 17.9-40 40 0 8.5 2.7 16.3 7.3 22.7L58 136l18.4-5.2A39.7 39.7 0 0 0 96 136c22.1 0 40-17.9 40-40S118.1 56 96 56Z" fill="#083f33"/>
  <path d="M119 107c-1.3-0.7-7.6-3.8-8.8-4.2-1.2-0.4-2-0.7-2.9 0.7-0.8 1.3-3.3 4.2-4 5-0.7 0.8-1.4 0.9-2.7 0.3-1.3-0.7-5.3-2-10.1-6.3-3.7-3.3-6.2-7.5-6.9-8.8-0.7-1.3-0.1-2 0.5-2.7 0.6-0.6 1.3-1.6 2-2.4 0.7-0.8 0.9-1.3 1.3-2.2 0.4-0.8 0.2-1.6-0.1-2.2-0.3-0.7-2.9-7-3.9-9.5-1-2.4-2.1-2.1-2.9-2.1h-2.5c-0.8 0-2.2 0.3-3.4 1.6-1.2 1.3-4.4 4.3-4.4 10.4s4.5 12 5.1 12.8c0.7 0.8 8.8 13.5 21.3 18.9 3 1.3 5.3 2 7.2 2.6 3 0.9 5.7 0.8 7.8 0.5 2.4-0.4 7.6-3.1 8.7-6.1 1.1-3 1.1-5.6 0.8-6.1-0.3-0.5-1.1-0.8-2.4-1.5Z" fill="#d7ffef"/>
</svg>
