<svg xmlns="http://www.w3.org/2000/svg" width="512" height="512" viewBox="0 0 512 512" role="img" aria-label="CipherLane maskable icon">
  <defs>
    <linearGradient id="g" x1="0" y1="0" x2="1" y2="1">
      <stop offset="0" stop-color="#25d366"/>
      <stop offset="1" stop-color="#00a884"/>
    </linearGradient>
  </defs>
  <rect width="512" height="512" fill="#0b141a"/>
  <circle cx="256" cy="256" r="196" fill="url(#g)"/>
  <path d="M256 168c-48.6 0-88 39.4-88 88 0 18.8 6 36 16 50.1L172 344l40.7-11.6A87.1 87.1 0 0 0 256 344c48.6 0 88-39.4 88-88s-39.4-88-88-88Z" fill="#083f33"/>
  <path d="M307 280c-2.8-1.5-16.5-8.2-19.1-9.2-2.5-1-4.4-1.5-6.2 1.5-1.8 2.9-7.1 9-8.7 10.8-1.5 1.8-3.1 2-5.8 0.6-2.8-1.5-11.6-4.4-21.9-13.7-8.1-7.3-13.5-16.2-15-19-1.5-2.8-0.2-4.3 1.2-5.7 1.3-1.4 2.9-3.5 4.3-5.2 1.5-1.8 2-2.9 2.9-4.8 0.9-1.8 0.4-3.5-0.2-4.8-0.7-1.5-6.2-15.1-8.5-20.7-2.2-5.3-4.6-4.6-6.3-4.6h-5.3c-1.8 0-4.8 0.7-7.3 3.5-2.6 2.8-9.5 9.3-9.5 22.8 0 13.5 9.8 26.3 11.1 28 1.4 1.8 19.2 29.4 46.2 41 6.4 2.8 11.5 4.5 15.6 5.6 6.6 2 12.4 1.8 17 1.2 5.2-0.9 16.6-6.7 18.8-13.3 2.4-6.5 2.4-12.1 1.8-13.3-0.7-1.2-2.6-1.8-5.2-3.3Z" fill="#d7ffef"/>
</svg>
